<?xml version="1.0" encoding="UTF-8" standalone="no"?>
<!-- Created with Inkscape (http://www.inkscape.org/) -->

<svg
   width="100mm"
   height="4mm"
   viewBox="0 0 100 4"
   version="1.1"
   id="svg1"
   inkscape:version="1.4.1-rc (06eac75fbf, 2025-03-29)"
   sodipodi:docname="separateur.svg"
   xmlns:inkscape="http://www.inkscape.org/namespaces/inkscape"
   xmlns:sodipodi="http://sodipodi.sourceforge.net/DTD/sodipodi-0.dtd"
   xmlns="http://www.w3.org/2000/svg"
   xmlns:svg="http://www.w3.org/2000/svg">
  <sodipodi:namedview
     id="namedview1"
     pagecolor="#ffffff"
     bordercolor="#666666"
     borderopacity="1.0"
     inkscape:showpageshadow="2"
     inkscape:pageopacity="0.0"
     inkscape:pagecheckerboard="0"
     inkscape:deskcolor="#d1d1d1"
     inkscape:document-units="mm"
     inkscape:zoom="1.4788159"
     inkscape:cx="252.90504"
     inkscape:cy="98.051418"
     inkscape:window-width="1920"
     inkscape:window-height="1032"
     inkscape:window-x="0"
     inkscape:window-y="24"
     inkscape:window-maximized="1"
     inkscape:current-layer="layer1" />
  <defs
     id="defs1" />
  <g
     inkscape:label="Layer 1"
     inkscape:groupmode="layer"
     id="layer1">
    <path
       fill-rule="evenodd"
       fill="#000000"
       fill-opacity="1"
       d="M 33.696387,2.0646147 H 0.61335982 c -0.02022,0 -0.037209,-0.018118 -0.037209,-0.040291 0,-0.02193 0.0168848,-0.040048 0.037209,-0.040048 H 33.696387 v 0.080334"
       id="path25"
       style="stroke-width:0.0586043" />
    <path
       fill-rule="evenodd"
       fill="#000000"
       fill-opacity="1"
       d="m 33.808941,2.0646147 c 0,0.06722 -0.05055,0.1220522 -0.112554,0.1220522 H 0.61335982 c -0.0826519,0 -0.14971146,-0.072468 -0.14971146,-0.1623412 0,-0.088915 0.0670179,-0.1620972 0.14971146,-0.1620972 H 33.696387 c 0.06201,0 0.112554,0.054826 0.112554,0.1220517 v 0.080334"
       id="path26"
       style="fill:#ac8a3c;fill-opacity:1;stroke-width:0.0586043" />
    <path
       fill-rule="evenodd"
       fill="#000000"
       fill-opacity="1"
       d="M 60.691837,2.0646147 H 39.498843 v -0.080334 h 21.192994 v 0.080334"
       id="path27"
       style="stroke-width:0.0586043" />
    <path
       fill-rule="evenodd"
       fill="#000000"
       fill-opacity="1"
       d="m 60.804391,2.0646147 c 0,0.06722 -0.05013,0.1220522 -0.112554,0.1220522 H 39.498843 c -0.06264,0 -0.112565,-0.054833 -0.112565,-0.1220522 v -0.080334 c 0,-0.067226 0.04993,-0.1220517 0.112565,-0.1220517 h 21.192994 c 0.06243,0 0.112554,0.054826 0.112554,0.1220517 v 0.080334"
       id="path28"
       style="fill:#ac8a3c;fill-opacity:1;stroke-width:0.0586043" />
    <path
       fill-rule="evenodd"
       fill="#000000"
       fill-opacity="1"
       d="m 66.495158,2.0646147 v -0.080334 h 33.082593 c 0.02068,0 0.03716,0.018111 0.03716,0.040048 0,0.022173 -0.01649,0.04029 -0.03716,0.04029 H 66.495158"
       id="path29"
       style="fill:#ac8a3c;fill-opacity:1;stroke-width:0.0586043" />
    <path
       fill-rule="evenodd"
       fill="#000000"
       fill-opacity="1"
       d="m 66.495158,2.1866669 c -0.06181,0 -0.112554,-0.054833 -0.112554,-0.1220522 v -0.080334 c 0,-0.067226 0.05076,-0.1220517 0.112554,-0.1220517 h 33.082593 c 0.08442,0 0.149714,0.073182 0.149714,0.1620972 0,0.089873 -0.0653,0.1623412 -0.149714,0.1623412 H 66.495158"
       id="path30"
       style="fill:#ac8a3c;fill-opacity:1;stroke-width:0.0586043" />
    <path
       fill-rule="evenodd"
       fill="#000000"
       fill-opacity="1"
       d="M 34.326668,2.8233867 35.06401,2.0243257 34.326668,1.2255081 33.589982,2.0243257 Z m 0,-0.1153818 0.63028,-0.6836792 -0.63028,-0.683442 -0.630281,0.683442 0.630281,0.6836792"
       id="path31"
       style="stroke-width:0.0586043" />
    <path
       fill-rule="evenodd"
       fill="#000000"
       fill-opacity="1"
       d="m 34.406693,2.9099154 c -0.02157,0.022644 -0.05013,0.035522 -0.08005,0.035522 -0.0297,0 -0.05847,-0.012878 -0.07932,-0.035522 l -0.736679,-0.799531 c -0.04377,-0.047443 -0.04377,-0.1249139 0,-0.1725874 L 34.24733,1.1389732 c 0.02085,-0.022644 0.04972,-0.035516 0.07932,-0.035516 0.02991,0 0.05847,0.012871 0.08005,0.035516 l 0.736686,0.7988238 c 0.02137,0.023122 0.03314,0.054348 0.03314,0.086529 0,0.032424 -0.01188,0.06365 -0.03314,0.086058 z M 34.326647,2.5351798 34.797763,2.0243257 34.326647,1.5137096 33.85575,2.0243257 34.326647,2.5351798"
       id="path32"
       style="fill:#ac8a3c;fill-opacity:1;stroke-width:0.0586043" />
    <path
       fill-rule="evenodd"
       fill="#000000"
       fill-opacity="1"
       d="m 65.850379,2.8233867 0.737114,-0.799061 -0.737114,-0.7988176 -0.736248,0.7988176 z m 0,-0.1153818 0.630719,-0.6836792 -0.630719,-0.683442 -0.629843,0.683442 0.629843,0.6836792"
       id="path33"
       style="fill:#ac8a3c;fill-opacity:1;stroke-width:0.0586043" />
    <path
       fill-rule="evenodd"
       fill="#000000"
       fill-opacity="1"
       d="m 65.930176,2.9099154 c -0.02137,0.022644 -0.04951,0.035522 -0.07984,0.035522 -0.02991,0 -0.05805,-0.012878 -0.07932,-0.035522 l -0.736681,-0.799531 c -0.04398,-0.047443 -0.04398,-0.1249139 0,-0.1725874 l 0.736686,-0.7988238 c 0.04377,-0.047673 0.115202,-0.047673 0.159165,0 l 0.737343,0.7988238 c 0.02064,0.023122 0.03252,0.054348 0.03252,0.086529 0,0.032424 -0.01188,0.06365 -0.03252,0.086058 z M 65.850856,2.5351798 66.321972,2.0243257 65.850856,1.5137096 65.37974,2.0243257 65.850856,2.5351798"
       id="path34"
       style="fill:#ac8a3c;fill-opacity:1;stroke-width:0.0586043" />
    <path
       fill-rule="evenodd"
       fill="#000000"
       fill-opacity="1"
       d="M 38.134513,3.5874012 39.57644,2.0243257 38.134513,0.46148759 36.69391,2.0243257 Z m 0,-0.1153757 1.335084,-1.4476998 -1.335084,-1.44745633 -1.334427,1.44745633 1.334427,1.4476998"
       id="path35"
       style="stroke-width:0.0586043" />
    <path
       fill-rule="evenodd"
       fill="#000000"
       fill-opacity="1"
       d="m 38.214538,3.673936 c -0.02157,0.022644 -0.04972,0.035516 -0.08005,0.035516 -0.0297,0 -0.05847,-0.012871 -0.07932,-0.035516 L 36.613905,2.1103844 c -0.04398,-0.047443 -0.04398,-0.1244383 0,-0.1718734 l 1.441271,-1.56355154 c 0.02084,-0.0226443 0.04972,-0.0355218 0.07932,-0.0355218 0.03033,0 0.05847,0.0128775 0.08005,0.0355218 L 39.655817,1.938511 c 0.04398,0.047438 0.04398,0.1244315 0,0.1718734 z m -0.08005,-0.3747357 1.1757,-1.2748746 -1.1757,-1.27463052 -1.175043,1.27463052 1.175043,1.2748746"
       id="path36"
       style="fill:#ac8a3c;fill-opacity:1;stroke-width:0.0586043" />
    <path
       fill-rule="evenodd"
       fill="#000000"
       fill-opacity="1"
       d="m 62.036812,3.5874012 1.44127,-1.5630755 -1.44127,-1.56283811 -1.44127,1.56283811 z m 0,-0.1153757 1.334865,-1.4476998 -1.334865,-1.44745633 -1.334427,1.44745633 1.334427,1.4476998"
       id="path37"
       style="stroke-width:0.0586043" />
    <path
       fill-rule="evenodd"
       fill="#000000"
       fill-opacity="1"
       d="m 62.116618,3.673936 c -0.02137,0.022644 -0.04992,0.035516 -0.07984,0.035516 -0.02991,0 -0.05847,-0.012871 -0.07932,-0.035516 l -1.44127,-1.5635516 c -0.04398,-0.047443 -0.04398,-0.1244383 0,-0.1718734 l 1.44127,-1.56355154 c 0.02085,-0.0226443 0.04951,-0.0355218 0.07932,-0.0355218 0.02991,0 0.05847,0.0128775 0.07984,0.0355218 L 63.558107,1.938511 c 0.02064,0.022409 0.03252,0.053634 0.03252,0.085815 0,0.032424 -0.01188,0.06365 -0.03252,0.086058 z m -0.07984,-0.3747357 1.17571,-1.2748746 -1.17571,-1.27463052 -1.175701,1.27463052 1.175701,1.2748746"
       id="path38"
       style="fill:#ac8a3c;fill-opacity:1;stroke-width:0.0586043" />
  </g>
</svg>
