<?xml version="1.0" encoding="UTF-8" standalone="no"?>
<svg
   width="283.46"
   height="283.46"
   enable-background="new 0 0 283.464 283.464"
   version="1.1"
   viewBox="0 0 283.464 283.464"
   id="svg9"
   sodipodi:docname="swords.svg"
   inkscape:version="1.4.1-rc (06eac75fbf, 2025-03-29)"
   xmlns:inkscape="http://www.inkscape.org/namespaces/inkscape"
   xmlns:sodipodi="http://sodipodi.sourceforge.net/DTD/sodipodi-0.dtd"
   xmlns="http://www.w3.org/2000/svg"
   xmlns:svg="http://www.w3.org/2000/svg">
  <defs
     id="defs9" />
  <sodipodi:namedview
     id="namedview9"
     pagecolor="#ffffff"
     bordercolor="#666666"
     borderopacity="1.0"
     inkscape:showpageshadow="2"
     inkscape:pageopacity="0.0"
     inkscape:pagecheckerboard="0"
     inkscape:deskcolor="#d1d1d1"
     showgrid="false"
     inkscape:zoom="2.9281028"
     inkscape:cx="141.73"
     inkscape:cy="141.73"
     inkscape:window-width="1920"
     inkscape:window-height="1032"
     inkscape:window-x="0"
     inkscape:window-y="24"
     inkscape:window-maximized="1"
     inkscape:current-layer="svg9" />
  <polygon
     points="102.78,161.42 91.111,149.75 98.653,142.21 106.08,158.12 "
     id="polygon1"
     transform="matrix(1.930009,0,0,2.072548,-140.10117,-143.98994)" />
  <polygon
     points="110.2,168.84 121.87,180.51 129.41,172.97 113.5,165.54 "
     id="polygon2"
     transform="matrix(1.930009,0,0,2.072548,-140.10117,-143.98994)" />
  <polygon
     points="75.731,187.41 84.217,195.89 89.874,187.41 109.32,167.96 103.66,162.3 84.217,181.75 "
     id="polygon3"
     transform="matrix(1.930009,0,0,2.072548,-140.10117,-143.98994)" />
  <polygon
     points="183.01,171.84 171.34,183.51 163.8,175.97 179.71,168.54 "
     id="polygon4"
     transform="matrix(1.930009,0,0,2.072548,-140.10117,-143.98994)" />
  <polygon
     points="190.43,164.42 202.1,152.75 194.56,145.21 187.13,161.12 "
     id="polygon5"
     transform="matrix(1.930009,0,0,2.072548,-140.10117,-143.98994)" />
  <polygon
     points="147.28,113.18 157.78,124.94 190.4,95.835 197.24,74.387 175.79,81.222 "
     id="polygon6"
     transform="matrix(1.930009,0,0,2.072548,-140.10117,-143.98994)" />
  <polygon
     points="132.7,129.52 105.55,159.95 111.68,166.08 142.67,138.42 "
     id="polygon7"
     transform="matrix(1.930009,0,0,2.072548,-140.10117,-143.98994)" />
  <polygon
     points="117.42,84.222 187.66,162.95 181.53,169.08 102.81,98.835 95.975,77.386 "
     id="polygon8"
     transform="matrix(1.930009,0,0,2.072548,-140.10117,-143.98994)" />
  <polygon
     points="208.99,198.89 217.48,190.41 208.99,184.75 189.55,165.3 183.89,170.96 203.34,190.41 "
     id="polygon9"
     transform="matrix(1.930009,0,0,2.072548,-140.10117,-143.98994)"
     style="fill:#808080" />
  <path
     style="fill:#808080;stroke-width:0.341518"
     d="M 136.03624,135.04843 C 95.308348,96.03908 61.187875,63.334187 60.212966,62.370898 L 58.440402,60.619456 51.960098,38.7623 C 48.39593,26.740864 45.510974,16.873745 45.549084,16.835368 c 0.101777,-0.10249 40.274245,13.689433 40.727924,13.982622 0.438271,0.283228 135.146612,162.3574 135.292122,162.77655 0.09,0.2592 -10.70168,12.05486 -11.23025,12.27504 -0.13857,0.0577 -33.57475,-31.81179 -74.30264,-70.82115 z"
     id="path1"
     transform="scale(1.0000141)" />
  <path
     style="fill:#808080;stroke-width:0.341518"
     d="m 155.21996,103.58553 c -5.07154,-6.096262 -9.56975,-11.523486 -9.99601,-12.060495 l -0.77502,-0.97638 27.44092,-33.023813 27.44092,-33.023818 20.2783,-6.943065 c 11.15305,-3.818686 20.33904,-6.882308 20.4133,-6.808049 0.0743,0.07426 -2.76233,9.92375 -6.30354,21.887758 l -6.43856,21.752741 -28.00448,26.83094 c -15.40246,14.75702 -29.54131,28.319851 -31.41966,30.139621 l -3.41518,3.30868 z"
     id="path2"
     transform="scale(1.0000141)" />
  <path
     style="fill:#808080;stroke-width:0.341518"
     d="m 224.28448,193.13747 -2.99579,-3.20284 6.87015,-15.8205 c 3.77858,-8.70128 6.98277,-16.02293 7.12042,-16.27034 0.17144,-0.30815 2.47613,1.94459 7.31706,7.15213 l 7.06679,7.60195 -1.31998,1.38583 c -0.72599,0.7622 -5.67281,6.07316 -10.99294,11.80213 -5.32013,5.72896 -9.76228,10.44739 -9.87144,10.4854 -0.10916,0.038 -1.54658,-1.37219 -3.19427,-3.13376 z"
     id="path3"
     transform="scale(1.0000141)" />
  <path
     style="fill:#808080;stroke-width:0.341518"
     d="m 183.61624,228.53732 c -3.87827,-4.12914 -7.0514,-7.59923 -7.0514,-7.71133 0,-0.11209 6.77456,-3.59177 15.05458,-7.73261 l 15.05458,-7.52881 2.9605,3.14492 c 1.62827,1.72971 2.96049,3.26489 2.96049,3.41151 0,0.14663 -4.61049,5.2031 -10.24554,11.23662 -5.63505,6.03351 -10.5687,11.35639 -10.96367,11.82862 l -0.71814,0.8586 z"
     id="path4"
     transform="scale(1.0000141)" />
  <path
     style="fill:#808080;stroke-width:0.341518"
     d="m 69.755065,193.81901 c -3.052318,-3.2775 -5.549669,-6.12274 -5.549669,-6.32276 0,-0.52952 51.597394,-62.54895 51.939034,-62.43008 0.15838,0.0551 4.46492,4.09324 9.5701,8.97363 l 9.28214,8.87342 -2.89737,2.73819 c -1.59355,1.506 -14.92099,14.26442 -29.61654,28.35204 -14.695543,14.08762 -26.822414,25.65004 -26.948599,25.69426 -0.126185,0.0442 -2.726779,-2.6012 -5.779096,-5.8787 z"
     id="path5"
     transform="scale(1.0000141)" />
  <path
     style="fill:#808080;stroke-width:0.341518"
     d="m 47.300252,178.48279 c -6.010718,-6.47831 -10.928578,-11.92607 -10.928578,-12.10614 0,-0.33871 13.528228,-15.08061 13.831481,-15.07235 0.215802,0.006 14.00712,31.79935 13.994407,32.26166 -0.0052,0.18783 -1.350243,1.77118 -2.989061,3.51855 l -2.979671,3.17703 z"
     id="path6"
     transform="scale(1.0000141)" />
  <path
     style="fill:#808080;stroke-width:0.341518"
     d="m 84.192541,218.0764 c -6.006131,-6.4622 -10.965229,-11.88443 -11.020217,-12.04939 -0.05499,-0.16497 1.247566,-1.73292 2.894564,-3.48434 l 2.994544,-3.1844 15.160275,7.58235 15.160273,7.58235 -1.52334,1.5974 c -0.83784,0.87857 -3.72707,3.97948 -6.42052,6.89093 -2.693444,2.91144 -5.21851,5.63576 -5.611256,6.05404 l -0.714083,0.76052 z"
     id="path7"
     transform="scale(1.0000141)" />
  <path
     style="fill:#808080;stroke-width:0.341518"
     d="m 14.510392,253.186 c -4.317934,-4.62927 -7.8876019,-8.50976 -7.9325946,-8.62333 -0.044993,-0.11357 3.5334766,-2.79295 7.9521556,-5.95417 l 8.033959,-5.74768 18.591778,-19.96003 c 10.225477,-10.97802 18.663139,-19.99464 18.750359,-20.03694 0.08722,-0.0423 2.530109,2.46709 5.428645,5.57641 l 5.270061,5.65331 -18.72619,20.12276 -18.726193,20.12276 -5.356328,8.63187 c -2.945981,4.74754 -5.373999,8.63188 -5.395595,8.63188 -0.0216,0 -3.572122,-3.78758 -7.890057,-8.41684 z"
     id="path8"
     transform="scale(1.0000141)" />
</svg>
