<?xml version="1.0" encoding="UTF-8" standalone="no"?>
<svg
   width="12"
   height="12"
   focusable="false"
   viewBox="0 0 12 12"
   version="1.1"
   id="svg1"
   sodipodi:docname="trash.svg"
   inkscape:version="1.4.1-rc (06eac75fbf, 2025-03-29)"
   xmlns:inkscape="http://www.inkscape.org/namespaces/inkscape"
   xmlns:sodipodi="http://sodipodi.sourceforge.net/DTD/sodipodi-0.dtd"
   xmlns="http://www.w3.org/2000/svg"
   xmlns:svg="http://www.w3.org/2000/svg">
  <defs
     id="defs1" />
  <sodipodi:namedview
     id="namedview1"
     pagecolor="#ffffff"
     bordercolor="#666666"
     borderopacity="1.0"
     inkscape:showpageshadow="2"
     inkscape:pageopacity="0.0"
     inkscape:pagecheckerboard="0"
     inkscape:deskcolor="#d1d1d1"
     showgrid="false"
     inkscape:zoom="69.166667"
     inkscape:cx="6"
     inkscape:cy="6"
     inkscape:window-width="1920"
     inkscape:window-height="1032"
     inkscape:window-x="0"
     inkscape:window-y="24"
     inkscape:window-maximized="1"
     inkscape:current-layer="svg1" />
  <path
     fill="none"
     stroke="currentColor"
     stroke-linecap="round"
     d="M4.5 2.5V1c0-.3.2-.5.5-.5h2c.3 0 .5.2.5.5v1.5M2 2.5h8m-5.5 7V5m3 4.5V5m-5-.5V11c0 .3.2.5.5.5h6c.3 0 .5-.2.5-.5V4.5"
     id="path1" />
  <path
     style="fill:#008080;fill-opacity:1;stroke-width:0.0144578"
     d="M 2.8915663,11.985508 C 2.6590087,11.963102 2.4039447,11.836805 2.2548775,11.670246 2.156106,11.559885 2.0581979,11.359712 2.0307652,11.212048 2.0120754,11.111446 2.0097717,10.658699 2.0130725,7.7349398 l 0.0038,-3.3614458 0.030901,-0.06683 C 2.0845968,4.2270156 2.170025,4.1291191 2.2427794,4.0831913 2.4868916,3.92909 2.8072594,4.0252776 2.9448298,4.2939759 l 0.040712,0.079518 0.00377,3.3144578 0.00377,3.3144583 H 6 9.0069233 l 0.00377,-3.3144583 0.00377,-3.3144578 0.042391,-0.083718 C 9.1335049,4.1383916 9.2879044,4.0307219 9.4568018,4.0108713 9.6511149,3.9880336 9.8635462,4.1148642 9.9522314,4.306664 l 0.030901,0.06683 0.0038,3.3614458 c 0.0033,2.9237592 9.97e-4,3.3765062 -0.017693,3.4771082 -0.027433,0.147664 -0.1253409,0.347837 -0.2241123,0.458198 -0.1550998,0.173299 -0.4002685,0.291391 -0.6564279,0.316187 -0.1565065,0.01515 -6.0394058,0.01427 -6.1971283,-9.25e-4 z"
     id="path2" />
  <path
     style="fill:#008080;fill-opacity:1;stroke-width:0.0144578"
     d="M 4.3590361,9.9709574 C 4.2777943,9.9443766 4.2421393,9.9234129 4.1749846,9.8627426 4.1003247,9.7952919 4.0566,9.7257429 4.0277248,9.6285095 4.0072415,9.559535 4.0048193,9.3079543 4.0048193,7.2495012 c 0,-2.297402 5.9e-5,-2.3020681 0.030354,-2.4001534 0.025636,-0.082999 0.044178,-0.1120884 0.1192771,-0.1871254 0.1180948,-0.1179972 0.2158707,-0.156963 0.3708504,-0.147792 0.1333344,0.00789 0.2272431,0.0493 0.3186906,0.1405296 0.036123,0.036037 0.081665,0.098052 0.1012048,0.1378111 l 0.035526,0.072289 v 2.3855422 2.3855422 l -0.033348,0.067028 C 4.8617287,9.8753157 4.7032018,9.9800312 4.5186339,9.9863789 4.4626623,9.988304 4.3908434,9.9813642 4.3590361,9.9709574 Z"
     id="path3" />
  <path
     style="fill:#008080;fill-opacity:1;stroke-width:0.0144578"
     d="M 7.3262197,9.9562564 C 7.2197561,9.9113465 7.1539244,9.8608505 7.1003807,9.7830275 7.0051165,9.6445655 7.0110039,9.821895 7.0153438,7.2216867 l 0.00393,-2.3566265 0.035683,-0.072289 c 0.08147,-0.1650488 0.2359104,-0.2674625 0.4197388,-0.2783407 0.1549797,-0.00917 0.2527556,0.029795 0.3708504,0.147792 0.075099,0.075037 0.093641,0.1041268 0.1192771,0.1871254 0.030295,0.098085 0.030354,0.1027514 0.030354,2.4001534 0,2.0584531 -0.00242,2.3100338 -0.022905,2.3790083 -0.029192,0.0983 -0.072685,0.1668589 -0.1503837,0.2370554 -0.088109,0.079601 -0.1754648,0.1142656 -0.3038192,0.1205616 -0.090173,0.00442 -0.122482,-6.073e-4 -0.1918526,-0.02987 z"
     id="path4" />
  <path
     style="fill:#008080;fill-opacity:1;stroke-width:0.0144578"
     d="M 1.8691957,2.9718481 C 1.5758154,2.8799102 1.430502,2.5722496 1.5531156,2.3026365 1.6006983,2.1980076 1.7017106,2.0956716 1.8040883,2.048375 1.8719423,2.017028 1.8777063,2.016847 2.9375559,2.012894 l 1.0652666,-0.00397 0.00581,-0.5960267 C 4.0150492,0.75382861 4.0165232,0.74167298 4.1142178,0.54210481 4.2064752,0.35364395 4.3512656,0.21001867 4.5448744,0.1149137 4.768275,0.00517431 4.7405115,0.00722892 6,0.00722892 c 1.0248651,0 1.1298606,0.00220254 1.2303859,0.02581034 0.2922765,0.0686395 0.5302175,0.25336668 0.6552006,0.50866966 0.097915,0.20000981 0.099363,0.21193473 0.1057847,0.87118528 l 0.00581,0.5960267 1.0652666,0.00397 c 1.0598492,0.00395 1.0656142,0.00413 1.1334682,0.035481 0.102377,0.047297 0.20339,0.1496326 0.250972,0.2542615 0.0332,0.073003 0.04108,0.1108759 0.04144,0.1992587 3.89e-4,0.094394 -0.0059,0.1219941 -0.04649,0.2044683 -0.05465,0.1110089 -0.133181,0.1875558 -0.247332,0.2410798 l -0.08125,0.038099 -4.0915666,0.0027 C 2.6664676,2.9904547 1.919156,2.9875044 1.8691957,2.9718481 Z M 7.0120482,1.5036145 V 0.99759036 H 6 4.9879518 V 1.5036145 2.0096386 H 6 7.0120482 Z"
     id="path5" />
</svg>
